<svg xmlns="http://www.w3.org/2000/svg" xmlns:xlink="http://www.w3.org/1999/xlink" width="740" height="711.3"><rect width="740" height="711.3" rx="5" ry="5" class="a"/><svg y="0%" x="0%"><circle cx="20" cy="20" r="6" fill="#ff5f58"/><circle cx="40" cy="20" r="6" fill="#ffbd2e"/><circle cx="60" cy="20" r="6" fill="#18c132"/></svg><svg height="651.3" viewBox="0 0 70 65.13" width="700" x="15" xmlns="http://www.w3.org/2000/svg" xmlns:xlink="http://www.w3.org/1999/xlink" y="50"><style>@keyframes r{0%{transform:translateX(0)}.2%{transform:translateX(-70px)}.3%{transform:translateX(-210px)}4.5%{transform:translateX(-420px)}5.2%{transform:translateX(-490px)}6.8%{transform:translateX(-630px)}7.9%{transform:translateX(-700px)}8.6%{transform:translateX(-770px)}10.2%{transform:translateX(-910px)}15.9%{transform:translateX(-1120px)}16.3%{transform:translateX(-1330px)}28.3%{transform:translateX(-1540px)}31.6%{transform:translateX(-1750px)}33.2%{transform:translateX(-1960px)}36.2%{transform:translateX(-2240px)}37.8%{transform:translateX(-2380px)}46.6%{transform:translateX(-2660px)}60.4%{transform:translateX(-2730px)}67.5%{transform:translateX(-3500px)}79.3%{transform:translateX(-3570px)}79.8%{transform:translateX(-3640px)}80.4%{transform:translateX(-3710px)}80.5%{transform:translateX(-3780px)}80.8%{transform:translateX(-3850px)}81.4%{transform:translateX(-3990px)}81.5%{transform:translateX(-4130px)}81.6%{transform:translateX(-4200px)}81.7%{transform:translateX(-4270px)}81.8%{transform:translateX(-4340px)}82%{transform:translateX(-4480px)}82.1%{transform:translateX(-4760px)}to{transform:translateX(-4970px)}}.a{fill:#282d35}.f{fill:#b9c0cb;white-space:pre}.g,.h{font-weight:700}.g{fill:#89b4fa;white-space:pre}.h{fill:#d290e4}.h,.i,.j,.k{white-space:pre}.i{fill:#a6e3a1;font-weight:700}.j,.k{fill:#89b4fa}.k{fill:#a8cc8c}.l,.m,.n,.t,.u,.v{fill:#66c2cd;white-space:pre}.m,.n,.t,.u,.v{fill:#71bef2}.n,.t,.u,.v{fill:#dbab79}.t,.u,.v{fill:#cdd6f4}.u,.v{fill:#6c7086}.v{fill:#f38ba8}</style><g font-family="Monaco,Consolas,Menlo,'Bitstream Vera Sans Mono','Powerline Symbols',monospace" font-size="1.67"><defs><symbol id="1"><text y="1.67" class="f">󰣇</text><text x="3.006" y="1.67" class="g">ani-dl/target/debug</text><text x="23.046" y="1.67" class="f">on</text><text x="26.052" y="1.67" class="h"></text><text x="28.056" y="1.67" class="h">master</text></symbol><symbol id="2"><text y="1.67" class="i">❯</text></symbol><symbol id="3"><text y="1.67" class="i">❯</text><text x="2.004" y="1.67" class="j">./ani-dl</text></symbol><symbol id="4"><text y="1.67" class="k">?</text><text x="2.004" y="1.67" class="f">Sélectionnez</text><text x="15.03" y="1.67" class="f">les</text><text x="19.038" y="1.67" class="f">animes:</text></symbol><symbol id="5"><text y="1.67" class="l">&gt;</text><text x="2.004" y="1.67" class="m">2.43-seiin-koukou-danshi-volley-bu</text><text x="37.074" y="1.67" class="f">(</text><text x="38.076" y="1.67" class="k">vostfr</text><text x="44.088" y="1.67" class="f">)</text></symbol><symbol id="6"><text x="2.004" y="1.67" class="m">3d-kanojo</text><text x="12.024" y="1.67" class="f">(</text><text x="13.026" y="1.67" class="k">vostfr</text><text x="19.038" y="1.67" class="f">)</text></symbol><symbol id="7"><text x="2.004" y="1.67" class="m">3d-kanojo</text><text x="12.024" y="1.67" class="f">saison</text><text x="19.038" y="1.67" class="n">2</text><text x="21.042" y="1.67" class="f">(</text><text x="22.044" y="1.67" class="k">vostfr</text><text x="28.056" y="1.67" class="f">)</text></symbol><symbol id="8"><text x="2.004" y="1.67" class="m">7-seeds</text><text x="10.02" y="1.67" class="f">(</text><text x="11.022" y="1.67" class="k">vostfr</text><text x="17.034" y="1.67" class="f">)</text></symbol><symbol id="9"><text x="2.004" y="1.67" class="m">7-seeds</text><text x="10.02" y="1.67" class="f">saison</text><text x="17.034" y="1.67" class="n">2</text><text x="19.038" y="1.67" class="f">(</text><text x="20.04" y="1.67" class="k">vostfr</text><text x="26.052" y="1.67" class="f">)</text></symbol><symbol id="10"><text x="2.004" y="1.67" class="m">91-days</text><text x="10.02" y="1.67" class="f">(</text><text x="11.022" y="1.67" class="k">vostfr</text><text x="17.034" y="1.67" class="f">)</text></symbol><symbol id="11"><text y="1.67" class="f">v</text><text x="2.004" y="1.67" class="m">a-centaurs-life</text><text x="18.036" y="1.67" class="f">(</text><text x="19.038" y="1.67" class="k">vostfr</text><text x="25.05" y="1.67" class="f">)</text></symbol><symbol id="12"><text y="1.67" class="l">[↑↓</text><text x="4.008" y="1.67" class="l">to</text><text x="7.014" y="1.67" class="l">move,</text><text x="13.026" y="1.67" class="l">enter</text><text x="19.038" y="1.67" class="l">to</text><text x="22.044" y="1.67" class="l">select,</text><text x="30.06" y="1.67" class="l">type</text><text x="35.07" y="1.67" class="l">to</text><text x="38.076" y="1.67" class="l">filter]</text></symbol><symbol id="13"><text y="1.67" class="k">?</text><text x="2.004" y="1.67" class="f">Sélectionnez</text><text x="15.03" y="1.67" class="f">les</text><text x="19.038" y="1.67" class="f">animes:</text><text x="28.056" y="1.67" class="f">a</text></symbol><symbol id="14"><text y="1.67" class="l">&gt;</text><text x="2.004" y="1.67" class="m">a-certain-scientific-accelerator</text><text x="35.07" y="1.67" class="f">(</text><text x="36.072" y="1.67" class="k">vostfr</text><text x="42.084" y="1.67" class="f">)</text></symbol><symbol id="15"><text x="2.004" y="1.67" class="m">ace-attorney</text><text x="15.03" y="1.67" class="f">(</text><text x="16.032" y="1.67" class="k">vostfr</text><text x="22.044" y="1.67" class="f">)</text></symbol><symbol id="16"><text x="2.004" y="1.67" class="m">ace-attorney</text><text x="15.03" y="1.67" class="f">saison</text><text x="22.044" y="1.67" class="n">2</text><text x="24.048" y="1.67" class="f">(</text><text x="25.05" y="1.67" class="k">vostfr</text><text x="31.062" y="1.67" class="f">)</text></symbol><symbol id="17"><text x="2.004" y="1.67" class="m">actually-i-am</text><text x="16.032" y="1.67" class="f">(</text><text x="17.034" y="1.67" class="k">vostfr</text><text x="23.046" y="1.67" class="f">)</text></symbol><symbol id="18"><text x="2.004" y="1.67" class="m">ascendance-of-a-bookworm</text><text x="27.054" y="1.67" class="f">(</text><text x="28.056" y="1.67" class="k">vostfr</text><text x="34.068" y="1.67" class="f">)</text></symbol><symbol id="19"><text x="2.004" y="1.67" class="m">asobi-asobase</text><text x="16.032" y="1.67" class="f">(</text><text x="17.034" y="1.67" class="k">vostfr</text><text x="23.046" y="1.67" class="f">)</text></symbol><symbol id="20"><text y="1.67" class="f">v</text><text x="2.004" y="1.67" class="m">aoi-hana</text><text x="11.022" y="1.67" class="f">(</text><text x="12.024" y="1.67" class="k">vostfr</text><text x="18.036" y="1.67" class="f">)</text></symbol><symbol id="21"><text y="1.67" class="k">?</text><text x="2.004" y="1.67" class="f">Sélectionnez</text><text x="15.03" y="1.67" class="f">les</text><text x="19.038" y="1.67" class="f">animes:</text><text x="28.056" y="1.67" class="f">am</text></symbol><symbol id="22"><text y="1.67" class="l">&gt;</text><text x="2.004" y="1.67" class="m">actually-i-am</text><text x="16.032" y="1.67" class="f">(</text><text x="17.034" y="1.67" class="k">vostfr</text><text x="23.046" y="1.67" class="f">)</text></symbol><symbol id="23"><text x="2.004" y="1.67" class="m">amagami-ss</text><text x="13.026" y="1.67" class="f">saison</text><text x="20.04" y="1.67" class="n">2</text><text x="22.044" y="1.67" class="f">(</text><text x="23.046" y="1.67" class="k">vostfr</text><text x="29.058" y="1.67" class="f">)</text></symbol><symbol id="24"><text x="2.004" y="1.67" class="m">amaama-to-inazuma</text><text x="20.04" y="1.67" class="f">(</text><text x="21.042" y="1.67" class="k">vostfr</text><text x="27.054" y="1.67" class="f">)</text></symbol><symbol id="25"><text x="2.004" y="1.67" class="m">afro-samurai</text><text x="15.03" y="1.67" class="f">(</text><text x="16.032" y="1.67" class="k">vostfr</text><text x="22.044" y="1.67" class="f">)</text></symbol><symbol id="26"><text x="2.004" y="1.67" class="m">barakamon</text><text x="12.024" y="1.67" class="f">(</text><text x="13.026" y="1.67" class="k">vostfr</text><text x="19.038" y="1.67" class="f">)</text></symbol><symbol id="27"><text x="2.004" y="1.67" class="m">adachi-to-shimamura</text><text x="22.044" y="1.67" class="f">(</text><text x="23.046" y="1.67" class="k">vostfr</text><text x="29.058" y="1.67" class="f">)</text></symbol><symbol id="28"><text y="1.67" class="f">v</text><text x="2.004" y="1.67" class="m">arcana-famiglia</text><text x="18.036" y="1.67" class="f">(</text><text x="19.038" y="1.67" class="k">vostfr</text><text x="25.05" y="1.67" class="f">)</text></symbol><symbol id="29"><text y="1.67" class="k">?</text><text x="2.004" y="1.67" class="f">Sélectionnez</text><text x="15.03" y="1.67" class="f">les</text><text x="19.038" y="1.67" class="f">animes:</text><text x="28.056" y="1.67" class="f">ama</text></symbol><symbol id="30"><text y="1.67" class="l">&gt;</text><text x="2.004" y="1.67" class="m">amaama-to-inazuma</text><text x="20.04" y="1.67" class="f">(</text><text x="21.042" y="1.67" class="k">vostfr</text><text x="27.054" y="1.67" class="f">)</text></symbol><symbol id="31"><text x="2.004" y="1.67" class="m">amagami-ss</text><text x="13.026" y="1.67" class="f">(</text><text x="14.028" y="1.67" class="k">vostfr</text><text x="20.04" y="1.67" class="f">)</text></symbol><symbol id="32"><text x="2.004" y="1.67" class="m">amagi-brillant-park</text><text x="22.044" y="1.67" class="f">(</text><text x="23.046" y="1.67" class="k">vostfr</text><text x="29.058" y="1.67" class="f">)</text></symbol><symbol id="33"><text x="2.004" y="1.67" class="m">akiba-maid-war</text><text x="17.034" y="1.67" class="f">(</text><text x="18.036" y="1.67" class="k">vostfr</text><text x="24.048" y="1.67" class="f">)</text></symbol><symbol id="34"><text x="2.004" y="1.67" class="m">ano-natsu-de-matteru</text><text x="23.046" y="1.67" class="f">(</text><text x="24.048" y="1.67" class="k">vostfr</text><text x="30.06" y="1.67" class="f">)</text></symbol><symbol id="35"><text y="1.67" class="f">v</text><text x="2.004" y="1.67" class="m">adachi-to-shimamura</text><text x="22.044" y="1.67" class="f">(</text><text x="23.046" y="1.67" class="k">vostfr</text><text x="29.058" y="1.67" class="f">)</text></symbol><symbol id="36"><text y="1.67" class="k">?</text><text x="2.004" y="1.67" class="f">Sélectionnez</text><text x="15.03" y="1.67" class="f">les</text><text x="19.038" y="1.67" class="f">animes:</text><text x="28.056" y="1.67" class="f">amag</text></symbol><symbol id="37"><text y="1.67" class="l">&gt;</text><text x="2.004" y="1.67" class="m">amagami-ss</text><text x="13.026" y="1.67" class="f">(</text><text x="14.028" y="1.67" class="k">vostfr</text><text x="20.04" y="1.67" class="f">)</text></symbol><symbol id="38"><text x="2.004" y="1.67" class="m">azumanga-daioh</text><text x="17.034" y="1.67" class="f">(</text><text x="18.036" y="1.67" class="k">vostfr</text><text x="24.048" y="1.67" class="f">)</text></symbol><symbol id="39"><text y="1.67" class="k">?</text><text x="2.004" y="1.67" class="f">Sélectionnez</text><text x="15.03" y="1.67" class="f">les</text><text x="19.038" y="1.67" class="f">animes:</text><text x="28.056" y="1.67" class="f">amagi</text></symbol><symbol id="40"><text y="1.67" class="l">&gt;</text><text x="2.004" y="1.67" class="m">amagi-brillant-park</text><text x="22.044" y="1.67" class="f">(</text><text x="23.046" y="1.67" class="k">vostfr</text><text x="29.058" y="1.67" class="f">)</text></symbol><symbol id="41"><text y="1.67" class="k">&gt;</text><text x="2.004" y="1.67" class="f">Sélectionnez</text><text x="15.03" y="1.67" class="f">les</text><text x="19.038" y="1.67" class="f">animes:</text><text x="28.056" y="1.67" class="m">amagi-brillant-park</text><text x="48.096" y="1.67" class="f">(</text><text x="49.098" y="1.67" class="k">vostfr</text><text x="55.11" y="1.67" class="f">)</text></symbol><symbol id="42"><text y="1.67" class="l">[A</text><text x="3.006" y="1.67" class="l">supprimer</text><text x="13.026" y="1.67" class="l">pour</text><text x="18.036" y="1.67" class="l">la</text><text x="21.042" y="1.67" class="l">release]</text></symbol><symbol id="43"><text y="1.67" class="k">&gt;</text><text x="2.004" y="1.67" class="f">Voulez-vous</text><text x="14.028" y="1.67" class="f">télécharger</text><text x="26.052" y="1.67" class="f">les</text><text x="30.06" y="1.67" class="f">épisodes?</text><text x="40.08" y="1.67" class="l">Yes</text></symbol><symbol id="44"><text y="1.67" class="f">Downloading:</text><text x="13.026" y="1.67" class="f">https://video.sibnet.ru/shell.php?videoid=4845527</text></symbol><symbol id="45"><text y="1.67" class="f">Downloading:</text><text x="13.026" y="1.67" class="f">https://video.sibnet.ru/shell.php?videoid=4845529</text></symbol><symbol id="46"><text y="1.67" class="f">Downloading:</text><text x="13.026" y="1.67" class="f">https://video.sibnet.ru/shell.php?videoid=4845531</text></symbol><symbol id="47"><text y="1.67" class="f">Downloading:</text><text x="13.026" y="1.67" class="f">https://video.sibnet.ru/shell.php?videoid=4845532</text></symbol><symbol id="48"><text y="1.67" class="f">Downloading:</text><text x="13.026" y="1.67" class="f">https://video.sibnet.ru/shell.php?videoid=4845534</text></symbol><symbol id="49"><text y="1.67" class="f">Downloading:</text><text x="13.026" y="1.67" class="f">https://video.sibnet.ru/shell.php?videoid=4845533</text></symbol><symbol id="50"><text y="1.67" class="f">Downloading:</text><text x="13.026" y="1.67" class="f">https://video.sibnet.ru/shell.php?videoid=4845535</text></symbol><symbol id="51"><text y="1.67" class="f">Downloading:</text><text x="13.026" y="1.67" class="f">https://video.sibnet.ru/shell.php?videoid=4845536</text></symbol><symbol id="52"><text y="1.67" class="f">Downloading:</text><text x="13.026" y="1.67" class="f">https://video.sibnet.ru/shell.php?videoid=4845538</text></symbol><symbol id="53"><text y="1.67" class="f">Downloading:</text><text x="13.026" y="1.67" class="f">https://video.sibnet.ru/shell.php?videoid=4845537</text></symbol><symbol id="54"><text y="1.67" class="f">Downloading:</text><text x="13.026" y="1.67" class="f">https://video.sibnet.ru/shell.php?videoid=4845539</text></symbol><symbol id="55"><text y="1.67" class="f">Downloading:</text><text x="13.026" y="1.67" class="f">https://video.sibnet.ru/shell.php?videoid=4845540</text></symbol><symbol id="56"><text y="1.67" class="f">Downloading:</text><text x="13.026" y="1.67" class="f">https://video.sibnet.ru/shell.php?videoid=4845542</text></symbol><symbol id="57"><text y="1.67" class="f">Downloading:</text><text x="13.026" y="1.67" class="f">https://video.sibnet.ru/shell.php?videoid=4845541</text></symbol><symbol id="58"><text y="1.67" class="f">[generic]</text><text x="10.02" y="1.67" class="f">Extracting</text><text x="21.042" y="1.67" class="f">URL:</text><text x="26.052" y="1.67" class="f">https://video.sibnet.ru/shell.php?videoid=48</text></symbol><symbol id="59"><text y="1.67" class="f">45541</text></symbol><symbol id="60"><text y="1.67" class="f">[generic]</text><text x="10.02" y="1.67" class="f">shell:</text><text x="17.034" y="1.67" class="f">Downloading</text><text x="29.058" y="1.67" class="f">webpage</text></symbol><symbol id="61"><text y="1.67" class="f">45540</text></symbol><symbol id="62"><text y="1.67" class="f">45531</text></symbol><symbol id="63"><text y="1.67" class="f">45529</text></symbol><symbol id="64"><text y="1.67" class="f">45527</text></symbol><symbol id="65"><text y="1.67" class="f">45536</text></symbol><symbol id="66"><text y="1.67" class="f">45532</text></symbol><symbol id="67"><text y="1.67" class="f">45542</text></symbol><symbol id="68"><text y="1.67" class="f">45538</text></symbol><symbol id="69"><text y="1.67" class="f">45539</text></symbol><symbol id="70"><text y="1.67" class="f">45534</text></symbol><symbol id="71"><text y="1.67" class="f">45535</text></symbol><symbol id="72"><text y="1.67" class="f">45537</text></symbol><symbol id="73"><text y="1.67" class="f">45533</text></symbol><symbol id="74"><text y="1.67" class="f">󰣇</text><text x="3.006" y="1.67" class="g">ani-dl/target/debug</text><text x="23.046" y="1.67" class="f">on</text><text x="26.052" y="1.67" class="h"></text><text x="28.056" y="1.67" class="h">master</text><text x="35.07" y="1.67" class="f">took</text><text x="40.08" y="1.67" style="white-space:pre" fill="#f9e2af" font-weight="700">5s</text></symbol><symbol id="a"><path fill="transparent" d="M0 0h70v31H0z"/></symbol><symbol id="b"><path fill="#6f7683" d="M0 0h1.102v2.171H0z"/></symbol></defs><path class="a" d="M0 0h70v65.13H0z"/><g style="animation-duration:7.874622s;animation-iteration-count:infinite;animation-name:r;animation-timing-function:steps(1,end)"><svg width="5040"><svg><use xlink:href="#a"/><use xlink:href="#b" x="-.004"/></svg><svg x="70"><use xlink:href="#a"/><use xlink:href="#b" x="-.004"/></svg><svg x="140"><use xlink:href="#a"/><use xlink:href="#b" x="-.004"/></svg><svg x="210"><use xlink:href="#a"/><use xlink:href="#b" x="1.996" y="4.317"/><use xlink:href="#1" y="2.171"/><use xlink:href="#2" y="4.342"/></svg><svg x="280"><use xlink:href="#a"/><use xlink:href="#b" x="2.996" y="4.317"/><use xlink:href="#1" y="2.171"/><text y="6.012" class="i">❯</text><text x="2.004" y="6.012" class="t">.</text></svg><svg x="350"><use xlink:href="#a"/><use xlink:href="#b" x="2.996" y="4.317"/><use xlink:href="#1" y="2.171"/><text y="6.012" class="i">❯</text><text x="2.004" y="6.012" class="j">.</text></svg><svg x="420"><use xlink:href="#a"/><use xlink:href="#b" x="2.996" y="4.317"/><use xlink:href="#1" y="2.171"/><text y="6.012" class="i">❯</text><text x="2.004" y="6.012" class="j">.</text><text x="3.006" y="6.012" class="u">/ani-dl</text></svg><svg x="490"><use xlink:href="#a"/><use xlink:href="#b" x="3.996" y="4.317"/><use xlink:href="#1" y="2.171"/><text y="6.012" class="i">❯</text><text x="2.004" y="6.012" class="j">./</text><text x="4.008" y="6.012" class="u">ani-dl</text></svg><svg x="560"><use xlink:href="#a"/><use xlink:href="#b" x="4.996" y="4.317"/><use xlink:href="#1" y="2.171"/><text y="6.012" class="i">❯</text><text x="2.004" y="6.012" class="j">./a</text><text x="5.01" y="6.012" class="u">ni-dl</text></svg><svg x="630"><use xlink:href="#a"/><use xlink:href="#b" x="4.996" y="4.317"/><use xlink:href="#1" y="2.171"/><text y="6.012" class="i">❯</text><text x="2.004" y="6.012" class="v">./a</text><text x="5.01" y="6.012" class="u">ni-dl</text></svg><svg x="700"><use xlink:href="#a"/><use xlink:href="#b" x="5.996" y="4.317"/><use xlink:href="#1" y="2.171"/><text y="6.012" class="i">❯</text><text x="2.004" y="6.012" class="v">./an</text><text x="6.012" y="6.012" class="u">i-dl</text></svg><svg x="770"><use xlink:href="#a"/><use xlink:href="#b" x="6.996" y="4.317"/><use xlink:href="#1" y="2.171"/><text y="6.012" class="i">❯</text><text x="2.004" y="6.012" class="v">./ani</text><text x="7.014" y="6.012" class="u">-dl</text></svg><svg x="840"><use xlink:href="#a"/><use xlink:href="#b" x="10.996" y="4.317"/><use xlink:href="#1" y="2.171"/><text y="6.012" class="i">❯</text><text x="2.004" y="6.012" class="t">./ani-dl</text></svg><svg x="910"><use xlink:href="#a"/><use xlink:href="#b" x="10.996" y="4.317"/><use xlink:href="#1" y="2.171"/><use xlink:href="#3" y="4.342"/></svg><svg x="980"><use xlink:href="#a"/><use xlink:href="#b" x="10.996"/><use xlink:href="#3"/></svg><svg x="1050"><use xlink:href="#a"/><use xlink:href="#b" x="-.004" y="2.146"/><use xlink:href="#3"/></svg><svg x="1120"><use xlink:href="#a"/><use xlink:href="#b" x="-.004" y="2.146"/><use xlink:href="#3"/></svg><svg x="1190"><use xlink:href="#a"/><use xlink:href="#3"/><use xlink:href="#4" y="2.171"/><use xlink:href="#5" y="4.342"/></svg><svg x="1260"><use xlink:href="#a"/><use xlink:href="#3"/><use xlink:href="#4" y="2.171"/><use xlink:href="#5" y="4.342"/><use xlink:href="#6" y="6.513"/><use xlink:href="#7" y="8.684"/><use xlink:href="#8" y="10.855"/><use xlink:href="#9" y="13.026"/><use xlink:href="#10" y="15.197"/><use xlink:href="#11" y="17.368"/></svg><svg x="1330"><use xlink:href="#a"/><use xlink:href="#b" x="27.996" y="2.146"/><use xlink:href="#3"/><use xlink:href="#4" y="2.171"/><use xlink:href="#5" y="4.342"/><use xlink:href="#6" y="6.513"/><use xlink:href="#7" y="8.684"/><use xlink:href="#8" y="10.855"/><use xlink:href="#9" y="13.026"/><use xlink:href="#10" y="15.197"/><use xlink:href="#11" y="17.368"/><use xlink:href="#12" y="19.539"/></svg><svg x="1400"><use xlink:href="#a"/><use xlink:href="#3"/><use xlink:href="#13" y="2.171"/><use xlink:href="#14" y="4.342"/><use xlink:href="#15" y="6.513"/><use xlink:href="#7" y="8.684"/><use xlink:href="#8" y="10.855"/><use xlink:href="#9" y="13.026"/><use xlink:href="#10" y="15.197"/><use xlink:href="#11" y="17.368"/><use xlink:href="#12" y="19.539"/></svg><svg x="1470"><use xlink:href="#a"/><use xlink:href="#3"/><use xlink:href="#13" y="2.171"/><use xlink:href="#14" y="4.342"/><use xlink:href="#15" y="6.513"/><use xlink:href="#16" y="8.684"/><use xlink:href="#17" y="10.855"/><use xlink:href="#18" y="13.026"/><use xlink:href="#19" y="15.197"/><use xlink:href="#20" y="17.368"/><use xlink:href="#12" y="19.539"/></svg><svg x="1540"><use xlink:href="#a"/><use xlink:href="#b" x="28.996" y="2.146"/><use xlink:href="#3"/><use xlink:href="#13" y="2.171"/><use xlink:href="#14" y="4.342"/><use xlink:href="#15" y="6.513"/><use xlink:href="#16" y="8.684"/><use xlink:href="#17" y="10.855"/><use xlink:href="#18" y="13.026"/><use xlink:href="#19" y="15.197"/><use xlink:href="#20" y="17.368"/><use xlink:href="#12" y="19.539"/></svg><svg x="1610"><use xlink:href="#a"/><use xlink:href="#3"/><use xlink:href="#21" y="2.171"/><use xlink:href="#22" y="4.342"/><use xlink:href="#23" y="6.513"/><use xlink:href="#16" y="8.684"/><use xlink:href="#17" y="10.855"/><use xlink:href="#18" y="13.026"/><use xlink:href="#19" y="15.197"/><use xlink:href="#20" y="17.368"/><use xlink:href="#12" y="19.539"/></svg><svg x="1680"><use xlink:href="#a"/><use xlink:href="#3"/><use xlink:href="#21" y="2.171"/><use xlink:href="#22" y="4.342"/><use xlink:href="#23" y="6.513"/><use xlink:href="#24" y="8.684"/><use xlink:href="#25" y="10.855"/><use xlink:href="#26" y="13.026"/><use xlink:href="#27" y="15.197"/><use xlink:href="#28" y="17.368"/><use xlink:href="#12" y="19.539"/></svg><svg x="1750"><use xlink:href="#a"/><use xlink:href="#b" x="29.996" y="2.146"/><use xlink:href="#3"/><use xlink:href="#21" y="2.171"/><use xlink:href="#22" y="4.342"/><use xlink:href="#23" y="6.513"/><use xlink:href="#24" y="8.684"/><use xlink:href="#25" y="10.855"/><use xlink:href="#26" y="13.026"/><use xlink:href="#27" y="15.197"/><use xlink:href="#28" y="17.368"/><use xlink:href="#12" y="19.539"/></svg><svg x="1820"><use xlink:href="#a"/><use xlink:href="#3"/><use xlink:href="#29" y="2.171"/><use xlink:href="#30" y="4.342"/><use xlink:href="#31" y="6.513"/><use xlink:href="#24" y="8.684"/><use xlink:href="#25" y="10.855"/><use xlink:href="#26" y="13.026"/><use xlink:href="#27" y="15.197"/><use xlink:href="#28" y="17.368"/><use xlink:href="#12" y="19.539"/></svg><svg x="1890"><use xlink:href="#a"/><use xlink:href="#3"/><use xlink:href="#29" y="2.171"/><use xlink:href="#30" y="4.342"/><use xlink:href="#31" y="6.513"/><use xlink:href="#23" y="8.684"/><use xlink:href="#32" y="10.855"/><use xlink:href="#33" y="13.026"/><use xlink:href="#34" y="15.197"/><use xlink:href="#35" y="17.368"/><use xlink:href="#12" y="19.539"/></svg><svg x="1960"><use xlink:href="#a"/><use xlink:href="#b" x="30.996" y="2.146"/><use xlink:href="#3"/><use xlink:href="#29" y="2.171"/><use xlink:href="#30" y="4.342"/><use xlink:href="#31" y="6.513"/><use xlink:href="#23" y="8.684"/><use xlink:href="#32" y="10.855"/><use xlink:href="#33" y="13.026"/><use xlink:href="#34" y="15.197"/><use xlink:href="#35" y="17.368"/><use xlink:href="#12" y="19.539"/></svg><svg x="2030"><use xlink:href="#a"/><use xlink:href="#3"/><use xlink:href="#36" y="2.171"/><text y="6.012" class="l">&gt;</text><text x="2.004" y="6.012" class="m">amagami-ss</text><text x="13.026" y="6.012" class="f">(</text><text x="14.028" y="6.012" class="k">vostfr</text><text x="20.04" y="6.012" class="f">)</text><text x="21.042" y="6.012" class="k">vostfr</text><text x="27.054" y="6.012" class="f">)</text><use xlink:href="#31" y="6.513"/><use xlink:href="#23" y="8.684"/><use xlink:href="#32" y="10.855"/><use xlink:href="#33" y="13.026"/><use xlink:href="#34" y="15.197"/><use xlink:href="#35" y="17.368"/><use xlink:href="#12" y="19.539"/></svg><svg x="2100"><use xlink:href="#a"/><use xlink:href="#3"/><use xlink:href="#36" y="2.171"/><use xlink:href="#37" y="4.342"/><use xlink:href="#23" y="6.513"/><use xlink:href="#32" y="8.684"/><use xlink:href="#38" y="10.855"/><text y="14.696" class="l">[</text><text x="2.004" y="14.696" class="m">akiba-maid-war</text><text x="17.034" y="14.696" class="f">(</text><text x="18.036" y="14.696" class="k">vostfr</text><text x="24.048" y="14.696" class="f">)</text><use xlink:href="#34" y="15.197"/><use xlink:href="#35" y="17.368"/><use xlink:href="#12" y="19.539"/></svg><svg x="2170"><use xlink:href="#a"/><use xlink:href="#3"/><use xlink:href="#36" y="2.171"/><use xlink:href="#37" y="4.342"/><use xlink:href="#23" y="6.513"/><use xlink:href="#32" y="8.684"/><use xlink:href="#38" y="10.855"/><use xlink:href="#12" y="13.026"/><use xlink:href="#35" y="17.368"/><use xlink:href="#12" y="19.539"/></svg><svg x="2240"><use xlink:href="#a"/><use xlink:href="#b" x="31.996" y="2.146"/><use xlink:href="#3"/><use xlink:href="#36" y="2.171"/><use xlink:href="#37" y="4.342"/><use xlink:href="#23" y="6.513"/><use xlink:href="#32" y="8.684"/><use xlink:href="#38" y="10.855"/><use xlink:href="#12" y="13.026"/></svg><svg x="2310"><use xlink:href="#a"/><use xlink:href="#3"/><use xlink:href="#39" y="2.171"/><use xlink:href="#40" y="4.342"/><use xlink:href="#23" y="6.513"/><use xlink:href="#32" y="8.684"/><use xlink:href="#38" y="10.855"/><use xlink:href="#12" y="13.026"/></svg><svg x="2380"><use xlink:href="#a"/><use xlink:href="#b" x="32.996" y="2.146"/><use xlink:href="#3"/><use xlink:href="#39" y="2.171"/><use xlink:href="#40" y="4.342"/><use xlink:href="#31" y="6.513"/><use xlink:href="#23" y="8.684"/><use xlink:href="#38" y="10.855"/><use xlink:href="#12" y="13.026"/></svg><svg x="2450"><use xlink:href="#a"/><use xlink:href="#3"/><use xlink:href="#41" y="2.171"/><use xlink:href="#23" y="8.684"/><use xlink:href="#38" y="10.855"/><use xlink:href="#12" y="13.026"/></svg><svg x="2520"><use xlink:href="#a"/><use xlink:href="#b" x="-.004" y="15.172"/><use xlink:href="#3"/><use xlink:href="#41" y="2.171"/></svg><svg x="2590"><use xlink:href="#a"/><use xlink:href="#b" x="-.004" y="4.317"/><use xlink:href="#3"/><use xlink:href="#41" y="2.171"/></svg><svg x="2660"><use xlink:href="#a"/><use xlink:href="#b" x="45.996" y="4.317"/><use xlink:href="#3"/><use xlink:href="#41" y="2.171"/><text y="6.012" class="k">?</text><text x="2.004" y="6.012" class="f">Voulez-vous</text><text x="14.028" y="6.012" class="f">télécharger</text><text x="26.052" y="6.012" class="f">les</text><text x="30.06" y="6.012" class="f">épisodes?</text><text x="40.08" y="6.012" class="f">(y/N)</text><use xlink:href="#42" y="6.513"/></svg><svg x="2730"><use xlink:href="#a"/><use xlink:href="#b" x="46.996" y="4.317"/><use xlink:href="#3"/><use xlink:href="#41" y="2.171"/><text y="6.012" class="k">?</text><text x="2.004" y="6.012" class="f">Voulez-vous</text><text x="14.028" y="6.012" class="f">télécharger</text><text x="26.052" y="6.012" class="f">les</text><text x="30.06" y="6.012" class="f">épisodes?</text><text x="40.08" y="6.012" class="f">(y/N)</text><text x="46.092" y="6.012" class="f">y</text><use xlink:href="#42" y="6.513"/></svg><svg x="2800"><use xlink:href="#a"/><use xlink:href="#3"/><use xlink:href="#41" y="2.171"/><text y="6.012" class="k">&gt;</text><text x="2.004" y="6.012" class="f">Voulez-vous</text><text x="14.028" y="6.012" class="f">télécharger</text><text x="26.052" y="6.012" class="f">les</text><text x="30.06" y="6.012" class="f">épisodes?</text><text x="40.08" y="6.012" class="l">Yes</text><text x="43.086" y="6.012" class="f">N)</text><text x="46.092" y="6.012" class="f">y</text><use xlink:href="#42" y="6.513"/></svg><svg x="2870"><use xlink:href="#a"/><use xlink:href="#b" x="-.004" y="6.488"/><use xlink:href="#3"/><use xlink:href="#41" y="2.171"/><use xlink:href="#43" y="4.342"/></svg><svg x="2940"><use xlink:href="#a"/><use xlink:href="#b" x="-.004" y="8.659"/><use xlink:href="#3"/><use xlink:href="#41" y="2.171"/><use xlink:href="#43" y="4.342"/><use xlink:href="#44" y="6.513"/></svg><svg x="3010"><use xlink:href="#a"/><use xlink:href="#b" x="-.004" y="13.001"/><use xlink:href="#3"/><use xlink:href="#41" y="2.171"/><use xlink:href="#43" y="4.342"/><use xlink:href="#44" y="6.513"/><use xlink:href="#45" y="8.684"/><use xlink:href="#46" y="10.855"/></svg><svg x="3080"><use xlink:href="#a"/><use xlink:href="#b" x="-.004" y="15.172"/><use xlink:href="#3"/><use xlink:href="#41" y="2.171"/><use xlink:href="#43" y="4.342"/><use xlink:href="#44" y="6.513"/><use xlink:href="#45" y="8.684"/><use xlink:href="#46" y="10.855"/><use xlink:href="#47" y="13.026"/></svg><svg x="3150"><use xlink:href="#a"/><use xlink:href="#b" x="-.004" y="19.514"/><use xlink:href="#3"/><use xlink:href="#41" y="2.171"/><use xlink:href="#43" y="4.342"/><use xlink:href="#44" y="6.513"/><use xlink:href="#45" y="8.684"/><use xlink:href="#46" y="10.855"/><use xlink:href="#47" y="13.026"/><use xlink:href="#48" y="15.197"/><use xlink:href="#49" y="17.368"/></svg><svg x="3220"><use xlink:href="#a"/><use xlink:href="#b" x="-.004" y="21.685"/><use xlink:href="#3"/><use xlink:href="#41" y="2.171"/><use xlink:href="#43" y="4.342"/><use xlink:href="#44" y="6.513"/><use xlink:href="#45" y="8.684"/><use xlink:href="#46" y="10.855"/><use xlink:href="#47" y="13.026"/><use xlink:href="#48" y="15.197"/><use xlink:href="#49" y="17.368"/><use xlink:href="#50" y="19.539"/></svg><svg x="3290"><use xlink:href="#a"/><use xlink:href="#b" x="-.004" y="26.027"/><use xlink:href="#3"/><use xlink:href="#41" y="2.171"/><use xlink:href="#43" y="4.342"/><use xlink:href="#44" y="6.513"/><use xlink:href="#45" y="8.684"/><use xlink:href="#46" y="10.855"/><use xlink:href="#47" y="13.026"/><use xlink:href="#48" y="15.197"/><use xlink:href="#49" y="17.368"/><use xlink:href="#50" y="19.539"/><use xlink:href="#51" y="21.71"/><use xlink:href="#52" y="23.881"/></svg><svg x="3360"><use xlink:href="#a"/><use xlink:href="#b" x="-.004" y="28.198"/><use xlink:href="#3"/><use xlink:href="#41" y="2.171"/><use xlink:href="#43" y="4.342"/><use xlink:href="#44" y="6.513"/><use xlink:href="#45" y="8.684"/><use xlink:href="#46" y="10.855"/><use xlink:href="#47" y="13.026"/><use xlink:href="#48" y="15.197"/><use xlink:href="#49" y="17.368"/><use xlink:href="#50" y="19.539"/><use xlink:href="#51" y="21.71"/><use xlink:href="#52" y="23.881"/><use xlink:href="#53" y="26.052"/></svg><svg x="3430"><use xlink:href="#a"/><use xlink:href="#b" x="-.004" y="30.369"/><use xlink:href="#3"/><use xlink:href="#41" y="2.171"/><use xlink:href="#43" y="4.342"/><use xlink:href="#44" y="6.513"/><use xlink:href="#45" y="8.684"/><use xlink:href="#46" y="10.855"/><use xlink:href="#47" y="13.026"/><use xlink:href="#48" y="15.197"/><use xlink:href="#49" y="17.368"/><use xlink:href="#50" y="19.539"/><use xlink:href="#51" y="21.71"/><use xlink:href="#52" y="23.881"/><use xlink:href="#53" y="26.052"/><use xlink:href="#54" y="28.223"/></svg><svg x="3500"><use xlink:href="#a"/><use xlink:href="#b" x="-.004" y="36.882"/><use xlink:href="#3"/><use xlink:href="#41" y="2.171"/><use xlink:href="#43" y="4.342"/><use xlink:href="#44" y="6.513"/><use xlink:href="#45" y="8.684"/><use xlink:href="#46" y="10.855"/><use xlink:href="#47" y="13.026"/><use xlink:href="#48" y="15.197"/><use xlink:href="#49" y="17.368"/><use xlink:href="#50" y="19.539"/><use xlink:href="#51" y="21.71"/><use xlink:href="#52" y="23.881"/><use xlink:href="#53" y="26.052"/><use xlink:href="#54" y="28.223"/><use xlink:href="#55" y="30.394"/><use xlink:href="#56" y="32.565"/><use xlink:href="#57" y="34.736"/></svg><svg x="3570"><use xlink:href="#a"/><use xlink:href="#b" x="-.004" y="45.566"/><use xlink:href="#3"/><use xlink:href="#41" y="2.171"/><use xlink:href="#43" y="4.342"/><use xlink:href="#44" y="6.513"/><use xlink:href="#45" y="8.684"/><use xlink:href="#46" y="10.855"/><use xlink:href="#47" y="13.026"/><use xlink:href="#48" y="15.197"/><use xlink:href="#49" y="17.368"/><use xlink:href="#50" y="19.539"/><use xlink:href="#51" y="21.71"/><use xlink:href="#52" y="23.881"/><use xlink:href="#53" y="26.052"/><use xlink:href="#54" y="28.223"/><use xlink:href="#55" y="30.394"/><use xlink:href="#56" y="32.565"/><use xlink:href="#57" y="34.736"/><use xlink:href="#58" y="36.907"/><use xlink:href="#59" y="39.078"/><use xlink:href="#60" y="41.249"/></svg><svg x="3640"><use xlink:href="#a"/><use xlink:href="#b" x="-.004" y="54.25"/><use xlink:href="#3"/><use xlink:href="#41" y="2.171"/><use xlink:href="#43" y="4.342"/><use xlink:href="#44" y="6.513"/><use xlink:href="#45" y="8.684"/><use xlink:href="#46" y="10.855"/><use xlink:href="#47" y="13.026"/><use xlink:href="#48" y="15.197"/><use xlink:href="#49" y="17.368"/><use xlink:href="#50" y="19.539"/><use xlink:href="#51" y="21.71"/><use xlink:href="#52" y="23.881"/><use xlink:href="#53" y="26.052"/><use xlink:href="#54" y="28.223"/><use xlink:href="#55" y="30.394"/><use xlink:href="#56" y="32.565"/><use xlink:href="#57" y="34.736"/><use xlink:href="#58" y="36.907"/><use xlink:href="#59" y="39.078"/><use xlink:href="#60" y="41.249"/><use xlink:href="#58" y="45.591"/><use xlink:href="#61" y="47.762"/><use xlink:href="#60" y="49.933"/></svg><svg x="3710"><use xlink:href="#a"/><use xlink:href="#b" x="-.004" y="62.934"/><use xlink:href="#3"/><use xlink:href="#41" y="2.171"/><use xlink:href="#43" y="4.342"/><use xlink:href="#44" y="6.513"/><use xlink:href="#45" y="8.684"/><use xlink:href="#46" y="10.855"/><use xlink:href="#47" y="13.026"/><use xlink:href="#48" y="15.197"/><use xlink:href="#49" y="17.368"/><use xlink:href="#50" y="19.539"/><use xlink:href="#51" y="21.71"/><use xlink:href="#52" y="23.881"/><use xlink:href="#53" y="26.052"/><use xlink:href="#54" y="28.223"/><use xlink:href="#55" y="30.394"/><use xlink:href="#56" y="32.565"/><use xlink:href="#57" y="34.736"/><use xlink:href="#58" y="36.907"/><use xlink:href="#59" y="39.078"/><use xlink:href="#60" y="41.249"/><use xlink:href="#58" y="45.591"/><use xlink:href="#61" y="47.762"/><use xlink:href="#60" y="49.933"/><use xlink:href="#58" y="54.275"/><use xlink:href="#62" y="56.446"/><use xlink:href="#60" y="58.617"/></svg><svg x="3780"><use xlink:href="#a"/><use xlink:href="#b" x="-.004" y="65.105"/><use xlink:href="#44"/><use xlink:href="#45" y="2.171"/><use xlink:href="#46" y="4.342"/><use xlink:href="#47" y="6.513"/><use xlink:href="#48" y="8.684"/><use xlink:href="#49" y="10.855"/><use xlink:href="#50" y="13.026"/><use xlink:href="#51" y="15.197"/><use xlink:href="#52" y="17.368"/><use xlink:href="#53" y="19.539"/><use xlink:href="#54" y="21.71"/><use xlink:href="#55" y="23.881"/><use xlink:href="#56" y="26.052"/><use xlink:href="#57" y="28.223"/><use xlink:href="#58" y="30.394"/><use xlink:href="#59" y="32.565"/><use xlink:href="#60" y="34.736"/><use xlink:href="#58" y="39.078"/><use xlink:href="#61" y="41.249"/><use xlink:href="#60" y="43.42"/><use xlink:href="#58" y="47.762"/><use xlink:href="#62" y="49.933"/><use xlink:href="#60" y="52.104"/><use xlink:href="#58" y="56.446"/><use xlink:href="#63" y="58.617"/><use xlink:href="#60" y="60.788"/></svg><svg x="3850"><use xlink:href="#a"/><use xlink:href="#b" x="-.004" y="65.105"/><use xlink:href="#48"/><use xlink:href="#49" y="2.171"/><use xlink:href="#50" y="4.342"/><use xlink:href="#51" y="6.513"/><use xlink:href="#52" y="8.684"/><use xlink:href="#53" y="10.855"/><use xlink:href="#54" y="13.026"/><use xlink:href="#55" y="15.197"/><use xlink:href="#56" y="17.368"/><use xlink:href="#57" y="19.539"/><use xlink:href="#58" y="21.71"/><use xlink:href="#59" y="23.881"/><use xlink:href="#60" y="26.052"/><use xlink:href="#58" y="30.394"/><use xlink:href="#61" y="32.565"/><use xlink:href="#60" y="34.736"/><use xlink:href="#58" y="39.078"/><use xlink:href="#62" y="41.249"/><use xlink:href="#60" y="43.42"/><use xlink:href="#58" y="47.762"/><use xlink:href="#63" y="49.933"/><use xlink:href="#60" y="52.104"/><use xlink:href="#58" y="56.446"/><use xlink:href="#64" y="58.617"/><use xlink:href="#60" y="60.788"/></svg><svg x="3920"><use xlink:href="#a"/><use xlink:href="#b" x="-.004" y="65.105"/><use xlink:href="#52"/><use xlink:href="#53" y="2.171"/><use xlink:href="#54" y="4.342"/><use xlink:href="#55" y="6.513"/><use xlink:href="#56" y="8.684"/><use xlink:href="#57" y="10.855"/><use xlink:href="#58" y="13.026"/><use xlink:href="#59" y="15.197"/><use xlink:href="#60" y="17.368"/><use xlink:href="#58" y="21.71"/><use xlink:href="#61" y="23.881"/><use xlink:href="#60" y="26.052"/><use xlink:href="#58" y="30.394"/><use xlink:href="#62" y="32.565"/><use xlink:href="#60" y="34.736"/><use xlink:href="#58" y="39.078"/><use xlink:href="#63" y="41.249"/><use xlink:href="#60" y="43.42"/><use xlink:href="#58" y="47.762"/><use xlink:href="#64" y="49.933"/><use xlink:href="#60" y="52.104"/><use xlink:href="#58" y="56.446"/><use xlink:href="#65" y="58.617"/><use xlink:href="#60" y="60.788"/></svg><svg x="3990"><use xlink:href="#a"/><use xlink:href="#b" x="-.004" y="65.105"/><use xlink:href="#56"/><use xlink:href="#57" y="2.171"/><use xlink:href="#58" y="4.342"/><use xlink:href="#59" y="6.513"/><use xlink:href="#60" y="8.684"/><use xlink:href="#58" y="13.026"/><use xlink:href="#61" y="15.197"/><use xlink:href="#60" y="17.368"/><use xlink:href="#58" y="21.71"/><use xlink:href="#62" y="23.881"/><use xlink:href="#60" y="26.052"/><use xlink:href="#58" y="30.394"/><use xlink:href="#63" y="32.565"/><use xlink:href="#60" y="34.736"/><use xlink:href="#58" y="39.078"/><use xlink:href="#64" y="41.249"/><use xlink:href="#60" y="43.42"/><use xlink:href="#58" y="47.762"/><use xlink:href="#65" y="49.933"/><use xlink:href="#60" y="52.104"/><use xlink:href="#58" y="56.446"/><use xlink:href="#66" y="58.617"/><use xlink:href="#60" y="60.788"/></svg><svg x="4060"><use xlink:href="#a"/><use xlink:href="#b" x="-.004" y="65.105"/><use xlink:href="#60"/><use xlink:href="#58" y="4.342"/><use xlink:href="#61" y="6.513"/><use xlink:href="#60" y="8.684"/><use xlink:href="#58" y="13.026"/><use xlink:href="#62" y="15.197"/><use xlink:href="#60" y="17.368"/><use xlink:href="#58" y="21.71"/><use xlink:href="#63" y="23.881"/><use xlink:href="#60" y="26.052"/><use xlink:href="#58" y="30.394"/><use xlink:href="#64" y="32.565"/><use xlink:href="#60" y="34.736"/><use xlink:href="#58" y="39.078"/><use xlink:href="#65" y="41.249"/><use xlink:href="#60" y="43.42"/><use xlink:href="#58" y="47.762"/><use xlink:href="#66" y="49.933"/><use xlink:href="#60" y="52.104"/><use xlink:href="#58" y="56.446"/><use xlink:href="#67" y="58.617"/><use xlink:href="#60" y="60.788"/></svg><svg x="4130"><use xlink:href="#a"/><use xlink:href="#b" x="-.004" y="65.105"/><use xlink:href="#60"/><use xlink:href="#58" y="4.342"/><use xlink:href="#62" y="6.513"/><use xlink:href="#60" y="8.684"/><use xlink:href="#58" y="13.026"/><use xlink:href="#63" y="15.197"/><use xlink:href="#60" y="17.368"/><use xlink:href="#58" y="21.71"/><use xlink:href="#64" y="23.881"/><use xlink:href="#60" y="26.052"/><use xlink:href="#58" y="30.394"/><use xlink:href="#65" y="32.565"/><use xlink:href="#60" y="34.736"/><use xlink:href="#58" y="39.078"/><use xlink:href="#66" y="41.249"/><use xlink:href="#60" y="43.42"/><use xlink:href="#58" y="47.762"/><use xlink:href="#67" y="49.933"/><use xlink:href="#60" y="52.104"/><use xlink:href="#58" y="56.446"/><use xlink:href="#68" y="58.617"/><use xlink:href="#60" y="60.788"/></svg><svg x="4200"><use xlink:href="#a"/><use xlink:href="#b" x="-.004" y="65.105"/><use xlink:href="#60"/><use xlink:href="#58" y="4.342"/><use xlink:href="#63" y="6.513"/><use xlink:href="#60" y="8.684"/><use xlink:href="#58" y="13.026"/><use xlink:href="#64" y="15.197"/><use xlink:href="#60" y="17.368"/><use xlink:href="#58" y="21.71"/><use xlink:href="#65" y="23.881"/><use xlink:href="#60" y="26.052"/><use xlink:href="#58" y="30.394"/><use xlink:href="#66" y="32.565"/><use xlink:href="#60" y="34.736"/><use xlink:href="#58" y="39.078"/><use xlink:href="#67" y="41.249"/><use xlink:href="#60" y="43.42"/><use xlink:href="#58" y="47.762"/><use xlink:href="#68" y="49.933"/><use xlink:href="#60" y="52.104"/><use xlink:href="#58" y="56.446"/><use xlink:href="#69" y="58.617"/><use xlink:href="#60" y="60.788"/></svg><svg x="4270"><use xlink:href="#a"/><use xlink:href="#b" x="-.004" y="65.105"/><use xlink:href="#60"/><use xlink:href="#58" y="4.342"/><use xlink:href="#64" y="6.513"/><use xlink:href="#60" y="8.684"/><use xlink:href="#58" y="13.026"/><use xlink:href="#65" y="15.197"/><use xlink:href="#60" y="17.368"/><use xlink:href="#58" y="21.71"/><use xlink:href="#66" y="23.881"/><use xlink:href="#60" y="26.052"/><use xlink:href="#58" y="30.394"/><use xlink:href="#67" y="32.565"/><use xlink:href="#60" y="34.736"/><use xlink:href="#58" y="39.078"/><use xlink:href="#68" y="41.249"/><use xlink:href="#60" y="43.42"/><use xlink:href="#58" y="47.762"/><use xlink:href="#69" y="49.933"/><use xlink:href="#60" y="52.104"/><use xlink:href="#58" y="56.446"/><use xlink:href="#70" y="58.617"/><use xlink:href="#60" y="60.788"/></svg><svg x="4340"><use xlink:href="#a"/><use xlink:href="#b" x="-.004" y="65.105"/><use xlink:href="#60"/><use xlink:href="#58" y="4.342"/><use xlink:href="#65" y="6.513"/><use xlink:href="#60" y="8.684"/><use xlink:href="#58" y="13.026"/><use xlink:href="#66" y="15.197"/><use xlink:href="#60" y="17.368"/><use xlink:href="#58" y="21.71"/><use xlink:href="#67" y="23.881"/><use xlink:href="#60" y="26.052"/><use xlink:href="#58" y="30.394"/><use xlink:href="#68" y="32.565"/><use xlink:href="#60" y="34.736"/><use xlink:href="#58" y="39.078"/><use xlink:href="#69" y="41.249"/><use xlink:href="#60" y="43.42"/><use xlink:href="#58" y="47.762"/><use xlink:href="#70" y="49.933"/><use xlink:href="#60" y="52.104"/><use xlink:href="#58" y="56.446"/><use xlink:href="#71" y="58.617"/><use xlink:href="#60" y="60.788"/></svg><svg x="4410"><use xlink:href="#a"/><use xlink:href="#b" x="-.004" y="65.105"/><use xlink:href="#60"/><use xlink:href="#58" y="4.342"/><use xlink:href="#66" y="6.513"/><use xlink:href="#60" y="8.684"/><use xlink:href="#58" y="13.026"/><use xlink:href="#67" y="15.197"/><use xlink:href="#60" y="17.368"/><use xlink:href="#58" y="21.71"/><use xlink:href="#68" y="23.881"/><use xlink:href="#60" y="26.052"/><use xlink:href="#58" y="30.394"/><use xlink:href="#69" y="32.565"/><use xlink:href="#60" y="34.736"/><use xlink:href="#58" y="39.078"/><use xlink:href="#70" y="41.249"/><use xlink:href="#60" y="43.42"/><use xlink:href="#58" y="47.762"/><use xlink:href="#71" y="49.933"/><use xlink:href="#60" y="52.104"/><use xlink:href="#58" y="56.446"/><use xlink:href="#72" y="58.617"/><use xlink:href="#60" y="60.788"/></svg><svg x="4480"><use xlink:href="#a"/><use xlink:href="#b" x="-.004" y="65.105"/><use xlink:href="#60"/><use xlink:href="#58" y="4.342"/><use xlink:href="#67" y="6.513"/><use xlink:href="#60" y="8.684"/><use xlink:href="#58" y="13.026"/><use xlink:href="#68" y="15.197"/><use xlink:href="#60" y="17.368"/><use xlink:href="#58" y="21.71"/><use xlink:href="#69" y="23.881"/><use xlink:href="#60" y="26.052"/><use xlink:href="#58" y="30.394"/><use xlink:href="#70" y="32.565"/><use xlink:href="#60" y="34.736"/><use xlink:href="#58" y="39.078"/><use xlink:href="#71" y="41.249"/><use xlink:href="#60" y="43.42"/><use xlink:href="#58" y="47.762"/><use xlink:href="#72" y="49.933"/><use xlink:href="#60" y="52.104"/><use xlink:href="#58" y="56.446"/><use xlink:href="#73" y="58.617"/><use xlink:href="#60" y="60.788"/></svg><svg x="4550"><use xlink:href="#a"/><use xlink:href="#b" x="-.004" y="65.105"/><use xlink:href="#67"/><use xlink:href="#60" y="2.171"/><use xlink:href="#58" y="6.513"/><use xlink:href="#68" y="8.684"/><use xlink:href="#60" y="10.855"/><use xlink:href="#58" y="15.197"/><use xlink:href="#69" y="17.368"/><use xlink:href="#60" y="19.539"/><use xlink:href="#58" y="23.881"/><use xlink:href="#70" y="26.052"/><use xlink:href="#60" y="28.223"/><use xlink:href="#58" y="32.565"/><use xlink:href="#71" y="34.736"/><use xlink:href="#60" y="36.907"/><use xlink:href="#58" y="41.249"/><use xlink:href="#72" y="43.42"/><use xlink:href="#60" y="45.591"/><use xlink:href="#58" y="49.933"/><use xlink:href="#73" y="52.104"/><use xlink:href="#60" y="54.275"/></svg><svg x="4620"><use xlink:href="#a"/><use xlink:href="#b" x="-.004" y="65.105"/><use xlink:href="#67"/><use xlink:href="#60" y="2.171"/><use xlink:href="#58" y="6.513"/><use xlink:href="#68" y="8.684"/><use xlink:href="#60" y="10.855"/><use xlink:href="#58" y="15.197"/><use xlink:href="#69" y="17.368"/><use xlink:href="#60" y="19.539"/><use xlink:href="#58" y="23.881"/><use xlink:href="#70" y="26.052"/><use xlink:href="#60" y="28.223"/><use xlink:href="#58" y="32.565"/><use xlink:href="#71" y="34.736"/><use xlink:href="#60" y="36.907"/><use xlink:href="#58" y="41.249"/><use xlink:href="#72" y="43.42"/><use xlink:href="#60" y="45.591"/><use xlink:href="#58" y="49.933"/><use xlink:href="#73" y="52.104"/><use xlink:href="#60" y="54.275"/></svg><svg x="4690"><use xlink:href="#a"/><use xlink:href="#b" x="-.004" y="65.105"/><use xlink:href="#67"/><use xlink:href="#60" y="2.171"/><use xlink:href="#58" y="6.513"/><use xlink:href="#68" y="8.684"/><use xlink:href="#60" y="10.855"/><use xlink:href="#58" y="15.197"/><use xlink:href="#69" y="17.368"/><use xlink:href="#60" y="19.539"/><use xlink:href="#58" y="23.881"/><use xlink:href="#70" y="26.052"/><use xlink:href="#60" y="28.223"/><use xlink:href="#58" y="32.565"/><use xlink:href="#71" y="34.736"/><use xlink:href="#60" y="36.907"/><use xlink:href="#58" y="41.249"/><use xlink:href="#72" y="43.42"/><use xlink:href="#60" y="45.591"/><use xlink:href="#58" y="49.933"/><use xlink:href="#73" y="52.104"/><use xlink:href="#60" y="54.275"/></svg><svg x="4760"><use xlink:href="#a"/><use xlink:href="#b" x="1.996" y="65.105"/><use xlink:href="#58" y="2.171"/><use xlink:href="#68" y="4.342"/><use xlink:href="#60" y="6.513"/><use xlink:href="#58" y="10.855"/><use xlink:href="#69" y="13.026"/><use xlink:href="#60" y="15.197"/><use xlink:href="#58" y="19.539"/><use xlink:href="#70" y="21.71"/><use xlink:href="#60" y="23.881"/><use xlink:href="#58" y="28.223"/><use xlink:href="#71" y="30.394"/><use xlink:href="#60" y="32.565"/><use xlink:href="#58" y="36.907"/><use xlink:href="#72" y="39.078"/><use xlink:href="#60" y="41.249"/><use xlink:href="#58" y="45.591"/><use xlink:href="#73" y="47.762"/><use xlink:href="#60" y="49.933"/><use xlink:href="#74" y="62.959"/><use xlink:href="#2" y="65.13"/></svg><svg x="4830"><use xlink:href="#a"/><use xlink:href="#b" x="-.004" y="65.105"/><use xlink:href="#58"/><use xlink:href="#68" y="2.171"/><use xlink:href="#60" y="4.342"/><use xlink:href="#58" y="8.684"/><use xlink:href="#69" y="10.855"/><use xlink:href="#60" y="13.026"/><use xlink:href="#58" y="17.368"/><use xlink:href="#70" y="19.539"/><use xlink:href="#60" y="21.71"/><use xlink:href="#58" y="26.052"/><use xlink:href="#71" y="28.223"/><use xlink:href="#60" y="30.394"/><use xlink:href="#58" y="34.736"/><use xlink:href="#72" y="36.907"/><use xlink:href="#60" y="39.078"/><use xlink:href="#58" y="43.42"/><use xlink:href="#73" y="45.591"/><use xlink:href="#60" y="47.762"/><use xlink:href="#74" y="60.788"/><use xlink:href="#2" y="62.959"/></svg><svg x="4900"><use xlink:href="#a"/><use xlink:href="#b" x="-.004" y="65.105"/><use xlink:href="#58"/><use xlink:href="#68" y="2.171"/><use xlink:href="#60" y="4.342"/><use xlink:href="#58" y="8.684"/><use xlink:href="#69" y="10.855"/><use xlink:href="#60" y="13.026"/><use xlink:href="#58" y="17.368"/><use xlink:href="#70" y="19.539"/><use xlink:href="#60" y="21.71"/><use xlink:href="#58" y="26.052"/><use xlink:href="#71" y="28.223"/><use xlink:href="#60" y="30.394"/><use xlink:href="#58" y="34.736"/><use xlink:href="#72" y="36.907"/><use xlink:href="#60" y="39.078"/><use xlink:href="#58" y="43.42"/><use xlink:href="#73" y="45.591"/><use xlink:href="#60" y="47.762"/><use xlink:href="#74" y="60.788"/><use xlink:href="#2" y="62.959"/></svg><svg x="4970"><use xlink:href="#a"/><use xlink:href="#b" x="-.004" y="65.105"/><use xlink:href="#58"/><use xlink:href="#68" y="2.171"/><use xlink:href="#60" y="4.342"/><use xlink:href="#58" y="8.684"/><use xlink:href="#69" y="10.855"/><use xlink:href="#60" y="13.026"/><use xlink:href="#58" y="17.368"/><use xlink:href="#70" y="19.539"/><use xlink:href="#60" y="21.71"/><use xlink:href="#58" y="26.052"/><use xlink:href="#71" y="28.223"/><use xlink:href="#60" y="30.394"/><use xlink:href="#58" y="34.736"/><use xlink:href="#72" y="36.907"/><use xlink:href="#60" y="39.078"/><use xlink:href="#58" y="43.42"/><use xlink:href="#73" y="45.591"/><use xlink:href="#60" y="47.762"/><use xlink:href="#74" y="60.788"/><use xlink:href="#2" y="62.959"/></svg></svg></g></g></svg></svg>